<svg viewBox="0 0 200 770" xmlns="http://www.w3.org/2000/svg" xml:space="preserve" style="fill-rule:evenodd;clip-rule:evenodd;stroke-miterlimit:10"><clipPath id="a"><path d="M0 0h207.472v770H0z"/></clipPath><g clip-path="url(#a)"><path d="M0 770h115.5" style="fill:none;fill-rule:nonzero;stroke:#000;stroke-width:1.07px"/><path d="M-.002 768.53H16.04v2.941H-.002zM-.002 691.53H16.04v2.941H-.002zM-.002 614.53H16.04v2.941H-.002zM-.002 537.53H16.04v2.941H-.002zM-.002 460.53H16.04v2.941H-.002zM-.002 383.53H16.04v2.941H-.002zM-.002 306.53H16.04v2.941H-.002zM-.002 229.53H16.04v2.941H-.002zM-.002 152.53H16.04v2.941H-.002zM-.002-1.47H16.04v2.941H-.002z"/><path d="M0 693h115.5M0 616h115.5M0 539h115.5M0 462h115.5M0 385h115.5" style="fill:none;fill-rule:nonzero;stroke:#000;stroke-width:1.07px"/><path d="M93.611 372.347c0 1.097-.229 2.071-.689 2.922a6.334 6.334 0 0 1-1.911 2.154c-.815.585-1.776 1.029-2.883 1.332-1.107.302-2.308.454-3.603.454-.323 0-.668-.011-1.034-.031a40.642 40.642 0 0 1-1.112-.079 22.5 22.5 0 0 1-1.097-.117 25.732 25.732 0 0 1-.986-.149v-3.337c.595.146 1.279.264 2.052.353.773.088 1.561.133 2.365.133 1.567 0 2.76-.3 3.58-.901.82-.601 1.23-1.433 1.23-2.499 0-1.107-.382-1.929-1.144-2.467-.762-.538-1.995-.807-3.697-.807h-4.01v-10.887h11.811v3.603h-8.24v4.167h1.473c1.044 0 2.042.094 2.992.282.95.188 1.789.514 2.514.979a5.091 5.091 0 0 1 1.739 1.888c.434.793.65 1.796.65 3.007zM112.301 368.572c0 1.681-.183 3.185-.549 4.512-.365 1.326-.901 2.446-1.605 3.36a7.012 7.012 0 0 1-2.577 2.091c-1.014.481-2.173.721-3.478.721-1.128 0-2.167-.199-3.118-.595-.95-.397-1.77-1.021-2.459-1.872-.69-.852-1.227-1.94-1.614-3.267-.386-1.326-.579-2.914-.579-4.762 0-1.682.185-3.185.556-4.512.37-1.326.906-2.446 1.605-3.36a6.918 6.918 0 0 1 2.585-2.091c1.024-.481 2.183-.721 3.478-.721 1.128 0 2.167.198 3.117.595.951.397 1.768 1.018 2.452 1.864.684.846 1.219 1.933 1.606 3.259.386 1.326.58 2.919.58 4.778zm-12.126.063v.587c0 .183.011.368.032.556l7.676-5.545c-.366-1.034-.849-1.799-1.449-2.296-.601-.496-1.308-.744-2.123-.744a3.13 3.13 0 0 0-1.629.447c-.501.297-.938.754-1.308 1.371-.371.616-.663 1.389-.878 2.318-.214.93-.321 2.031-.321 3.306zm8.272.062-.032-1.065-7.629 5.514c.334 1.013.804 1.765 1.41 2.256a3.26 3.26 0 0 0 2.115.736c.585 0 1.131-.151 1.637-.454.507-.303.945-.76 1.316-1.371.371-.611.661-1.383.869-2.318.209-.935.314-2.034.314-3.298zM116.248 378.896h-3.117l14.538-22.136h3.101l-14.522 22.136zm5.938-17.703c0 .7-.1 1.345-.298 1.935a4.561 4.561 0 0 1-.854 1.535 3.808 3.808 0 0 1-1.363 1.011c-.538.24-1.146.36-1.825.36-1.326 0-2.357-.397-3.094-1.191-.736-.793-1.104-1.968-1.104-3.524 0-.7.096-1.345.29-1.935.193-.59.475-1.102.846-1.535.37-.434.825-.773 1.362-1.019.538-.245 1.147-.368 1.826-.368 1.326 0 2.36.397 3.101 1.191.742.794 1.113 1.974 1.113 3.54zm-2.789.063c0-.825-.125-1.433-.376-1.825-.251-.392-.621-.587-1.112-.587-.982 0-1.473.804-1.473 2.412 0 .815.126 1.418.376 1.809.251.392.616.588 1.097.588.992 0 1.488-.799 1.488-2.397zm10.872 13.081c0 .7-.099 1.345-.298 1.935a4.586 4.586 0 0 1-.853 1.535c-.371.433-.825.77-1.363 1.01s-1.146.361-1.825.361c-1.327 0-2.358-.395-3.094-1.183-.737-.789-1.105-1.966-1.105-3.533 0-.71.097-1.36.29-1.95.193-.59.475-1.099.846-1.528a3.938 3.938 0 0 1 1.363-1.01c.538-.245 1.146-.368 1.825-.368 1.326 0 2.36.397 3.102 1.19.741.794 1.112 1.974 1.112 3.541zm-2.788.063c0-.826-.126-1.434-.376-1.826-.251-.391-.622-.587-1.113-.587-.981 0-1.472.804-1.472 2.413 0 .825.125 1.43.376 1.817.25.386.616.579 1.096.579.993 0 1.489-.799 1.489-2.396z" style="fill-rule:nonzero"/><path d="M0 308h115.5M0 231h115.5M0 154h115.5M0 77h115.5M0 0h115.5" style="fill:none;fill-rule:nonzero;stroke:#000;stroke-width:1.07px"/><path d="M80.875 27.209V23.81h5.217V10.651l-4.543 2.506-1.253-3.117 6.501-3.431h3.211V23.81h4.496v3.399H80.875zM112.943 16.886c0 1.681-.183 3.185-.548 4.511-.366 1.327-.901 2.447-1.606 3.361a7.032 7.032 0 0 1-2.577 2.091c-1.013.48-2.173.721-3.478.721-1.128 0-2.167-.199-3.117-.596-.951-.397-1.771-1.021-2.46-1.872-.689-.851-1.227-1.94-1.614-3.266-.386-1.326-.579-2.914-.579-4.762 0-1.682.185-3.186.556-4.512.371-1.327.906-2.447 1.606-3.36a6.915 6.915 0 0 1 2.585-2.092c1.023-.48 2.182-.72 3.477-.72 1.128 0 2.167.198 3.118.595.95.397 1.767 1.018 2.451 1.864.685.846 1.22 1.932 1.606 3.258.387 1.327.58 2.92.58 4.779zm-12.125.062v.588c0 .182.01.368.031.556l7.676-5.546c-.365-1.034-.848-1.799-1.449-2.295-.6-.496-1.308-.744-2.123-.744-.585 0-1.128.149-1.629.446-.501.298-.937.755-1.308 1.371s-.663 1.389-.877 2.319c-.214.929-.321 2.031-.321 3.305zm8.271.063-.031-1.065-7.629 5.514c.334 1.013.804 1.765 1.409 2.256a3.26 3.26 0 0 0 2.115.736c.585 0 1.131-.151 1.637-.454.507-.303.946-.76 1.316-1.371.371-.611.661-1.384.87-2.319.209-.934.313-2.033.313-3.297zM130.582 16.886c0 1.681-.182 3.185-.548 4.511-.365 1.327-.901 2.447-1.606 3.361a7.032 7.032 0 0 1-2.577 2.091c-1.013.48-2.172.721-3.477.721-1.128 0-2.168-.199-3.118-.596-.95-.397-1.77-1.021-2.459-1.872-.69-.851-1.228-1.94-1.614-3.266-.386-1.326-.58-2.914-.58-4.762 0-1.682.186-3.186.557-4.512.37-1.327.906-2.447 1.605-3.36a6.93 6.93 0 0 1 2.585-2.092c1.024-.48 2.183-.72 3.478-.72 1.128 0 2.167.198 3.117.595.951.397 1.768 1.018 2.452 1.864.684.846 1.219 1.932 1.606 3.258.386 1.327.579 2.92.579 4.779zm-12.125.062v.588c0 .182.011.368.031.556l7.677-5.546c-.366-1.034-.849-1.799-1.449-2.295-.601-.496-1.308-.744-2.123-.744-.585 0-1.128.149-1.629.446-.502.298-.938.755-1.308 1.371-.371.616-.664 1.389-.878 2.319-.214.929-.321 2.031-.321 3.305zm8.272.063-.032-1.065-7.629 5.514c.334 1.013.804 1.765 1.41 2.256a3.26 3.26 0 0 0 2.115.736c.585 0 1.13-.151 1.637-.454.506-.303.945-.76 1.316-1.371.371-.611.66-1.384.869-2.319.209-.934.314-2.033.314-3.297zM134.53 27.209h-3.117L145.95 5.074h3.102L134.53 27.209zm5.937-17.702c0 .7-.099 1.345-.297 1.935a4.578 4.578 0 0 1-.854 1.535c-.371.433-.825.77-1.363 1.01-.538.241-1.146.361-1.825.361-1.326 0-2.358-.397-3.094-1.191-.736-.794-1.104-1.969-1.104-3.525 0-.699.096-1.344.289-1.934.194-.59.476-1.102.846-1.536a3.909 3.909 0 0 1 1.363-1.018c.538-.245 1.147-.368 1.825-.368 1.327 0 2.361.397 3.102 1.191.742.793 1.112 1.973 1.112 3.54zm-2.788.063c0-.825-.125-1.434-.376-1.825-.251-.392-.621-.588-1.112-.588-.982 0-1.473.804-1.473 2.413 0 .814.125 1.417.376 1.809.251.392.616.587 1.097.587.992 0 1.488-.798 1.488-2.396zm10.872 13.08c0 .7-.099 1.345-.298 1.935a4.576 4.576 0 0 1-.853 1.535 3.816 3.816 0 0 1-1.363 1.011c-.538.24-1.147.36-1.825.36-1.327 0-2.358-.394-3.094-1.183-.737-.788-1.105-1.966-1.105-3.532 0-.71.097-1.36.29-1.951.193-.59.475-1.099.846-1.527a3.938 3.938 0 0 1 1.363-1.01c.538-.246 1.146-.369 1.825-.369 1.326 0 2.36.397 3.102 1.191.741.794 1.112 1.974 1.112 3.54zm-2.789.063c0-.825-.125-1.433-.376-1.825-.25-.392-.621-.587-1.112-.587-.981 0-1.472.804-1.472 2.412 0 .825.125 1.431.376 1.817.25.387.616.58 1.096.58.992 0 1.488-.799 1.488-2.397z" style="fill-rule:nonzero"/><g><path d="M0 762.3h57.75M0 754.6h57.75M0 746.9h57.75M0 739.2h57.75M0 731.5h57.75M0 723.8h57.75M0 716.1h57.75M0 708.4h57.75M0 700.7h57.75M0 685.3h57.75M0 677.6h57.75M0 669.9h57.75M0 662.2h57.75M0 654.5h57.75M0 646.8h57.75M0 639.1h57.75M0 631.4h57.75M0 623.7h57.75M0 608.3h57.75M0 600.6h57.75M0 592.9h57.75M0 585.2h57.75M0 577.5h57.75M0 569.8h57.75M0 562.1h57.75M0 554.4h57.75M0 546.7h57.75M0 531.3h57.75M0 523.6h57.75M0 515.9h57.75M0 508.2h57.75M0 500.5h57.75M0 492.8h57.75M0 485.1h57.75M0 477.4h57.75M0 469.7h57.75M0 454.3h57.75M0 446.6h57.75M0 438.9h57.75M0 431.2h57.75M0 423.5h57.75M0 415.8h57.75M0 408.1h57.75M0 400.4h57.75M0 392.7h57.75M0 377.3h57.75M0 369.6h57.75M0 361.9h57.75M0 354.2h57.75M0 346.5h57.75M0 338.8h57.75M0 331.1h57.75M0 323.4h57.75M0 315.7h57.75M0 300.3h57.75M0 292.6h57.75M0 284.9h57.75M0 277.2h57.75M0 269.5h57.75M0 261.8h57.75M0 254.1h57.75M0 246.4h57.75M0 238.7h57.75M0 223.3h57.75M0 215.6h57.75M0 207.9h57.75M0 200.2h57.75M0 192.5h57.75M0 184.8h57.75M0 177.1h57.75M0 169.4h57.75M0 161.7h57.75M0 146.3h57.75M0 138.6h57.75M0 130.9h57.75M0 123.2h57.75M0 115.5h57.75M0 107.8h57.75M0 100.1h57.75M0 92.4h57.75M0 84.7h57.75M0 69.3h57.75M0 61.6h57.75M0 53.9h57.75M0 46.2h57.75M0 38.5h57.75M0 30.8h57.75M0 23.1h57.75M0 15.4h57.75M0 7.7h57.75" style="fill:none;fill-rule:nonzero;stroke:#000;stroke-width:1.07px"/></g></g></svg>