<?xml version="1.0" encoding="UTF-8" standalone="no"?><!DOCTYPE svg PUBLIC "-//W3C//DTD SVG 1.1//EN" "http://www.w3.org/Graphics/SVG/1.1/DTD/svg11.dtd"><svg width="100%" height="100%" viewBox="0 0 200 770" version="1.1" xmlns="http://www.w3.org/2000/svg" xmlns:xlink="http://www.w3.org/1999/xlink" xml:space="preserve" xmlns:serif="http://www.serif.com/" style="fill-rule:evenodd;clip-rule:evenodd;stroke-miterlimit:10;"><clipPath id="_clip1"><rect id="myPaperExport.svg" x="0" y="0" width="207.472" height="770"/></clipPath><g clip-path="url(#_clip1)"><g><g id="_1--in.-Tick-Group" serif:id="1 &quot;in. Tick Group"><path id="_1--in.-Tick-no.-0" serif:id="1 &quot;in. Tick no. 0" d="M-0,770l115.5,0" style="fill:none;fill-rule:nonzero;stroke:#000;stroke-width:1.07px;"/><rect x="-0.002" y="768.53" width="16.042" height="2.941"/><rect x="-0.002" y="691.53" width="16.042" height="2.941"/><rect x="-0.002" y="614.53" width="16.042" height="2.941"/><rect x="-0.002" y="537.53" width="16.042" height="2.941"/><rect x="-0.002" y="460.53" width="16.042" height="2.941"/><rect x="-0.002" y="383.53" width="16.042" height="2.941"/><rect x="-0.002" y="306.53" width="16.042" height="2.941"/><rect x="-0.002" y="229.53" width="16.042" height="2.941"/><rect x="-0.002" y="152.53" width="16.042" height="2.941"/><rect x="-0.002" y="-1.47" width="16.042" height="2.941"/><path id="_1--in.-Tick-no.-1" serif:id="1 &quot;in. Tick no. 1" d="M-0,693l115.5,0" style="fill:none;fill-rule:nonzero;stroke:#000;stroke-width:1.07px;"/><path id="_1--in.-Tick-no.-2" serif:id="1 &quot;in. Tick no. 2" d="M0,616l115.5,0" style="fill:none;fill-rule:nonzero;stroke:#000;stroke-width:1.07px;"/><path id="_1--in.-Tick-no.-3" serif:id="1 &quot;in. Tick no. 3" d="M0,539l115.5,0" style="fill:none;fill-rule:nonzero;stroke:#000;stroke-width:1.07px;"/><path id="_1--in.-Tick-no.-4" serif:id="1 &quot;in. Tick no. 4" d="M0,462l115.5,0" style="fill:none;fill-rule:nonzero;stroke:#000;stroke-width:1.07px;"/><path id="_1--in.-Tick-no.-5" serif:id="1 &quot;in. Tick no. 5" d="M0,385l115.5,0" style="fill:none;fill-rule:nonzero;stroke:#000;stroke-width:1.07px;"/><path id="_1--in.-label-no.-5" serif:id="1 &quot;in. label no. 5" d="M93.611,372.347c0,1.097 -0.229,2.071 -0.689,2.922c-0.459,0.851 -1.097,1.569 -1.911,2.154c-0.815,0.585 -1.776,1.029 -2.883,1.332c-1.107,0.302 -2.308,0.454 -3.603,0.454c-0.323,-0 -0.668,-0.011 -1.034,-0.031c-0.365,-0.021 -0.736,-0.047 -1.112,-0.079c-0.376,-0.031 -0.741,-0.07 -1.097,-0.117c-0.355,-0.047 -0.684,-0.097 -0.986,-0.149l-0,-3.337c0.595,0.146 1.279,0.264 2.052,0.353c0.773,0.088 1.561,0.133 2.365,0.133c1.567,-0 2.76,-0.3 3.58,-0.901c0.82,-0.601 1.23,-1.433 1.23,-2.499c-0,-1.107 -0.382,-1.929 -1.144,-2.467c-0.762,-0.538 -1.995,-0.807 -3.697,-0.807l-4.01,0l-0,-10.887l11.811,-0l0,3.603l-8.24,-0l0,4.167l1.473,-0c1.044,-0 2.042,0.094 2.992,0.282c0.95,0.188 1.789,0.514 2.514,0.979c0.726,0.465 1.306,1.094 1.739,1.888c0.434,0.793 0.65,1.796 0.65,3.007Z" style="fill-rule:nonzero;"/><path d="M112.301,368.572c-0,1.681 -0.183,3.185 -0.549,4.512c-0.365,1.326 -0.901,2.446 -1.605,3.36c-0.705,0.914 -1.564,1.611 -2.577,2.091c-1.014,0.481 -2.173,0.721 -3.478,0.721c-1.128,-0 -2.167,-0.199 -3.118,-0.595c-0.95,-0.397 -1.77,-1.021 -2.459,-1.872c-0.69,-0.852 -1.227,-1.94 -1.614,-3.267c-0.386,-1.326 -0.579,-2.914 -0.579,-4.762c-0,-1.682 0.185,-3.185 0.556,-4.512c0.37,-1.326 0.906,-2.446 1.605,-3.36c0.7,-0.914 1.562,-1.611 2.585,-2.091c1.024,-0.481 2.183,-0.721 3.478,-0.721c1.128,-0 2.167,0.198 3.117,0.595c0.951,0.397 1.768,1.018 2.452,1.864c0.684,0.846 1.219,1.933 1.606,3.259c0.386,1.326 0.58,2.919 0.58,4.778Zm-12.126,0.063l0,0.587c0,0.183 0.011,0.368 0.032,0.556l7.676,-5.545c-0.366,-1.034 -0.849,-1.799 -1.449,-2.296c-0.601,-0.496 -1.308,-0.744 -2.123,-0.744c-0.585,0 -1.128,0.149 -1.629,0.447c-0.501,0.297 -0.938,0.754 -1.308,1.371c-0.371,0.616 -0.663,1.389 -0.878,2.318c-0.214,0.93 -0.321,2.031 -0.321,3.306Zm8.272,0.062l-0.032,-1.065l-7.629,5.514c0.334,1.013 0.804,1.765 1.41,2.256c0.606,0.491 1.311,0.736 2.115,0.736c0.585,0 1.131,-0.151 1.637,-0.454c0.507,-0.303 0.945,-0.76 1.316,-1.371c0.371,-0.611 0.661,-1.383 0.869,-2.318c0.209,-0.935 0.314,-2.034 0.314,-3.298Z" style="fill-rule:nonzero;"/><path d="M116.248,378.896l-3.117,-0l14.538,-22.136l3.101,-0l-14.522,22.136Zm5.938,-17.703c-0,0.7 -0.1,1.345 -0.298,1.935c-0.198,0.59 -0.483,1.102 -0.854,1.535c-0.371,0.434 -0.825,0.771 -1.363,1.011c-0.538,0.24 -1.146,0.36 -1.825,0.36c-1.326,0 -2.357,-0.397 -3.094,-1.191c-0.736,-0.793 -1.104,-1.968 -1.104,-3.524c-0,-0.7 0.096,-1.345 0.29,-1.935c0.193,-0.59 0.475,-1.102 0.846,-1.535c0.37,-0.434 0.825,-0.773 1.362,-1.019c0.538,-0.245 1.147,-0.368 1.826,-0.368c1.326,0 2.36,0.397 3.101,1.191c0.742,0.794 1.113,1.974 1.113,3.54Zm-2.789,0.063c0,-0.825 -0.125,-1.433 -0.376,-1.825c-0.251,-0.392 -0.621,-0.587 -1.112,-0.587c-0.982,-0 -1.473,0.804 -1.473,2.412c0,0.815 0.126,1.418 0.376,1.809c0.251,0.392 0.616,0.588 1.097,0.588c0.992,-0 1.488,-0.799 1.488,-2.397Zm10.872,13.081c0,0.7 -0.099,1.345 -0.298,1.935c-0.198,0.59 -0.483,1.101 -0.853,1.535c-0.371,0.433 -0.825,0.77 -1.363,1.01c-0.538,0.24 -1.146,0.361 -1.825,0.361c-1.327,-0 -2.358,-0.395 -3.094,-1.183c-0.737,-0.789 -1.105,-1.966 -1.105,-3.533c0,-0.71 0.097,-1.36 0.29,-1.95c0.193,-0.59 0.475,-1.099 0.846,-1.528c0.371,-0.428 0.825,-0.765 1.363,-1.01c0.538,-0.245 1.146,-0.368 1.825,-0.368c1.326,-0 2.36,0.397 3.102,1.19c0.741,0.794 1.112,1.974 1.112,3.541Zm-2.788,0.063c-0,-0.826 -0.126,-1.434 -0.376,-1.826c-0.251,-0.391 -0.622,-0.587 -1.113,-0.587c-0.981,0 -1.472,0.804 -1.472,2.413c-0,0.825 0.125,1.43 0.376,1.817c0.25,0.386 0.616,0.579 1.096,0.579c0.993,0 1.489,-0.799 1.489,-2.396Z" style="fill-rule:nonzero;"/><path id="_1--in.-Tick-no.-6" serif:id="1 &quot;in. Tick no. 6" d="M0,308l115.5,0" style="fill:none;fill-rule:nonzero;stroke:#000;stroke-width:1.07px;"/><path id="_1--in.-Tick-no.-7" serif:id="1 &quot;in. Tick no. 7" d="M0,231l115.5,0" style="fill:none;fill-rule:nonzero;stroke:#000;stroke-width:1.07px;"/><path id="_1--in.-Tick-no.-8" serif:id="1 &quot;in. Tick no. 8" d="M0,154l115.5,0" style="fill:none;fill-rule:nonzero;stroke:#000;stroke-width:1.07px;"/><path id="_1--in.-Tick-no.-9" serif:id="1 &quot;in. Tick no. 9" d="M0,77l115.5,0" style="fill:none;fill-rule:nonzero;stroke:#000;stroke-width:1.07px;"/><path id="_1--in.-Tick-no.-10" serif:id="1 &quot;in. Tick no. 10" d="M0,0l115.5,0" style="fill:none;fill-rule:nonzero;stroke:#000;stroke-width:1.07px;"/><path id="_1--in.-label-no.-10" serif:id="1 &quot;in. label no. 10" d="M80.875,27.209l0,-3.399l5.217,-0l-0,-13.159l-4.543,2.506l-1.253,-3.117l6.501,-3.431l3.211,-0l0,17.201l4.496,-0l0,3.399l-13.629,0Z" style="fill-rule:nonzero;"/><path d="M112.943,16.886c-0,1.681 -0.183,3.185 -0.548,4.511c-0.366,1.327 -0.901,2.447 -1.606,3.361c-0.705,0.913 -1.564,1.61 -2.577,2.091c-1.013,0.48 -2.173,0.721 -3.478,0.721c-1.128,-0 -2.167,-0.199 -3.117,-0.596c-0.951,-0.397 -1.771,-1.021 -2.46,-1.872c-0.689,-0.851 -1.227,-1.94 -1.614,-3.266c-0.386,-1.326 -0.579,-2.914 -0.579,-4.762c-0,-1.682 0.185,-3.186 0.556,-4.512c0.371,-1.327 0.906,-2.447 1.606,-3.36c0.699,-0.914 1.561,-1.611 2.585,-2.092c1.023,-0.48 2.182,-0.72 3.477,-0.72c1.128,-0 2.167,0.198 3.118,0.595c0.95,0.397 1.767,1.018 2.451,1.864c0.685,0.846 1.22,1.932 1.606,3.258c0.387,1.327 0.58,2.92 0.58,4.779Zm-12.125,0.062l-0,0.588c-0,0.182 0.01,0.368 0.031,0.556l7.676,-5.546c-0.365,-1.034 -0.848,-1.799 -1.449,-2.295c-0.6,-0.496 -1.308,-0.744 -2.123,-0.744c-0.585,-0 -1.128,0.149 -1.629,0.446c-0.501,0.298 -0.937,0.755 -1.308,1.371c-0.371,0.616 -0.663,1.389 -0.877,2.319c-0.214,0.929 -0.321,2.031 -0.321,3.305Zm8.271,0.063l-0.031,-1.065l-7.629,5.514c0.334,1.013 0.804,1.765 1.409,2.256c0.606,0.491 1.311,0.736 2.115,0.736c0.585,0 1.131,-0.151 1.637,-0.454c0.507,-0.303 0.946,-0.76 1.316,-1.371c0.371,-0.611 0.661,-1.384 0.87,-2.319c0.209,-0.934 0.313,-2.033 0.313,-3.297Z" style="fill-rule:nonzero;"/><path d="M130.582,16.886c0,1.681 -0.182,3.185 -0.548,4.511c-0.365,1.327 -0.901,2.447 -1.606,3.361c-0.705,0.913 -1.564,1.61 -2.577,2.091c-1.013,0.48 -2.172,0.721 -3.477,0.721c-1.128,-0 -2.168,-0.199 -3.118,-0.596c-0.95,-0.397 -1.77,-1.021 -2.459,-1.872c-0.69,-0.851 -1.228,-1.94 -1.614,-3.266c-0.386,-1.326 -0.58,-2.914 -0.58,-4.762c0,-1.682 0.186,-3.186 0.557,-4.512c0.37,-1.327 0.906,-2.447 1.605,-3.36c0.7,-0.914 1.562,-1.611 2.585,-2.092c1.024,-0.48 2.183,-0.72 3.478,-0.72c1.128,-0 2.167,0.198 3.117,0.595c0.951,0.397 1.768,1.018 2.452,1.864c0.684,0.846 1.219,1.932 1.606,3.258c0.386,1.327 0.579,2.92 0.579,4.779Zm-12.125,0.062l0,0.588c0,0.182 0.011,0.368 0.031,0.556l7.677,-5.546c-0.366,-1.034 -0.849,-1.799 -1.449,-2.295c-0.601,-0.496 -1.308,-0.744 -2.123,-0.744c-0.585,-0 -1.128,0.149 -1.629,0.446c-0.502,0.298 -0.938,0.755 -1.308,1.371c-0.371,0.616 -0.664,1.389 -0.878,2.319c-0.214,0.929 -0.321,2.031 -0.321,3.305Zm8.272,0.063l-0.032,-1.065l-7.629,5.514c0.334,1.013 0.804,1.765 1.41,2.256c0.606,0.491 1.311,0.736 2.115,0.736c0.585,0 1.13,-0.151 1.637,-0.454c0.506,-0.303 0.945,-0.76 1.316,-1.371c0.371,-0.611 0.66,-1.384 0.869,-2.319c0.209,-0.934 0.314,-2.033 0.314,-3.297Z" style="fill-rule:nonzero;"/><path d="M134.53,27.209l-3.117,0l14.537,-22.135l3.102,-0l-14.522,22.135Zm5.937,-17.702c0,0.7 -0.099,1.345 -0.297,1.935c-0.199,0.59 -0.483,1.102 -0.854,1.535c-0.371,0.433 -0.825,0.77 -1.363,1.01c-0.538,0.241 -1.146,0.361 -1.825,0.361c-1.326,-0 -2.358,-0.397 -3.094,-1.191c-0.736,-0.794 -1.104,-1.969 -1.104,-3.525c-0,-0.699 0.096,-1.344 0.289,-1.934c0.194,-0.59 0.476,-1.102 0.846,-1.536c0.371,-0.433 0.825,-0.772 1.363,-1.018c0.538,-0.245 1.147,-0.368 1.825,-0.368c1.327,-0 2.361,0.397 3.102,1.191c0.742,0.793 1.112,1.973 1.112,3.54Zm-2.788,0.063c-0,-0.825 -0.125,-1.434 -0.376,-1.825c-0.251,-0.392 -0.621,-0.588 -1.112,-0.588c-0.982,0 -1.473,0.804 -1.473,2.413c0,0.814 0.125,1.417 0.376,1.809c0.251,0.392 0.616,0.587 1.097,0.587c0.992,0 1.488,-0.798 1.488,-2.396Zm10.872,13.08c-0,0.7 -0.099,1.345 -0.298,1.935c-0.198,0.59 -0.483,1.102 -0.853,1.535c-0.371,0.434 -0.826,0.771 -1.363,1.011c-0.538,0.24 -1.147,0.36 -1.825,0.36c-1.327,0 -2.358,-0.394 -3.094,-1.183c-0.737,-0.788 -1.105,-1.966 -1.105,-3.532c0,-0.71 0.097,-1.36 0.29,-1.951c0.193,-0.59 0.475,-1.099 0.846,-1.527c0.371,-0.428 0.825,-0.765 1.363,-1.01c0.538,-0.246 1.146,-0.369 1.825,-0.369c1.326,0 2.36,0.397 3.102,1.191c0.741,0.794 1.112,1.974 1.112,3.54Zm-2.789,0.063c0,-0.825 -0.125,-1.433 -0.376,-1.825c-0.25,-0.392 -0.621,-0.587 -1.112,-0.587c-0.981,-0 -1.472,0.804 -1.472,2.412c-0,0.825 0.125,1.431 0.376,1.817c0.25,0.387 0.616,0.58 1.096,0.58c0.992,0 1.488,-0.799 1.488,-2.397Z" style="fill-rule:nonzero;"/></g><g id="_1-10th--in.-Tick-Group" serif:id="1/10th &quot;in. Tick Group"><path id="_1-10th--in.-Tick-no.-1" serif:id="1/10th &quot;in. Tick no. 1" d="M-0,762.3l57.75,-0" style="fill:none;fill-rule:nonzero;stroke:#000;stroke-width:1.07px;"/><path id="_1-10th--in.-Tick-no.-2" serif:id="1/10th &quot;in. Tick no. 2" d="M-0,754.6l57.75,0" style="fill:none;fill-rule:nonzero;stroke:#000;stroke-width:1.07px;"/><path id="_1-10th--in.-Tick-no.-3" serif:id="1/10th &quot;in. Tick no. 3" d="M-0,746.9l57.75,0" style="fill:none;fill-rule:nonzero;stroke:#000;stroke-width:1.07px;"/><path id="_1-10th--in.-Tick-no.-4" serif:id="1/10th &quot;in. Tick no. 4" d="M-0,739.2l57.75,0" style="fill:none;fill-rule:nonzero;stroke:#000;stroke-width:1.07px;"/><path id="_1-10th--in.-Tick-no.-5" serif:id="1/10th &quot;in. Tick no. 5" d="M-0,731.5l57.75,0" style="fill:none;fill-rule:nonzero;stroke:#000;stroke-width:1.07px;"/><path id="_1-10th--in.-Tick-no.-6" serif:id="1/10th &quot;in. Tick no. 6" d="M-0,723.8l57.75,-0" style="fill:none;fill-rule:nonzero;stroke:#000;stroke-width:1.07px;"/><path id="_1-10th--in.-Tick-no.-7" serif:id="1/10th &quot;in. Tick no. 7" d="M-0,716.1l57.75,0" style="fill:none;fill-rule:nonzero;stroke:#000;stroke-width:1.07px;"/><path id="_1-10th--in.-Tick-no.-8" serif:id="1/10th &quot;in. Tick no. 8" d="M-0,708.4l57.75,0" style="fill:none;fill-rule:nonzero;stroke:#000;stroke-width:1.07px;"/><path id="_1-10th--in.-Tick-no.-9" serif:id="1/10th &quot;in. Tick no. 9" d="M-0,700.7l57.75,0" style="fill:none;fill-rule:nonzero;stroke:#000;stroke-width:1.07px;"/><path id="_1-10th--in.-Tick-no.-11" serif:id="1/10th &quot;in. Tick no. 11" d="M-0,685.3l57.75,-0" style="fill:none;fill-rule:nonzero;stroke:#000;stroke-width:1.07px;"/><path id="_1-10th--in.-Tick-no.-12" serif:id="1/10th &quot;in. Tick no. 12" d="M-0,677.6l57.75,0" style="fill:none;fill-rule:nonzero;stroke:#000;stroke-width:1.07px;"/><path id="_1-10th--in.-Tick-no.-13" serif:id="1/10th &quot;in. Tick no. 13" d="M-0,669.9l57.75,0" style="fill:none;fill-rule:nonzero;stroke:#000;stroke-width:1.07px;"/><path id="_1-10th--in.-Tick-no.-14" serif:id="1/10th &quot;in. Tick no. 14" d="M-0,662.2l57.75,0" style="fill:none;fill-rule:nonzero;stroke:#000;stroke-width:1.07px;"/><path id="_1-10th--in.-Tick-no.-15" serif:id="1/10th &quot;in. Tick no. 15" d="M-0,654.5l57.75,0" style="fill:none;fill-rule:nonzero;stroke:#000;stroke-width:1.07px;"/><path id="_1-10th--in.-Tick-no.-16" serif:id="1/10th &quot;in. Tick no. 16" d="M-0,646.8l57.75,-0" style="fill:none;fill-rule:nonzero;stroke:#000;stroke-width:1.07px;"/><path id="_1-10th--in.-Tick-no.-17" serif:id="1/10th &quot;in. Tick no. 17" d="M0,639.1l57.75,0" style="fill:none;fill-rule:nonzero;stroke:#000;stroke-width:1.07px;"/><path id="_1-10th--in.-Tick-no.-18" serif:id="1/10th &quot;in. Tick no. 18" d="M0,631.4l57.75,0" style="fill:none;fill-rule:nonzero;stroke:#000;stroke-width:1.07px;"/><path id="_1-10th--in.-Tick-no.-19" serif:id="1/10th &quot;in. Tick no. 19" d="M0,623.7l57.75,0" style="fill:none;fill-rule:nonzero;stroke:#000;stroke-width:1.07px;"/><path id="_1-10th--in.-Tick-no.-21" serif:id="1/10th &quot;in. Tick no. 21" d="M0,608.3l57.75,-0" style="fill:none;fill-rule:nonzero;stroke:#000;stroke-width:1.07px;"/><path id="_1-10th--in.-Tick-no.-22" serif:id="1/10th &quot;in. Tick no. 22" d="M0,600.6l57.75,0" style="fill:none;fill-rule:nonzero;stroke:#000;stroke-width:1.07px;"/><path id="_1-10th--in.-Tick-no.-23" serif:id="1/10th &quot;in. Tick no. 23" d="M0,592.9l57.75,0" style="fill:none;fill-rule:nonzero;stroke:#000;stroke-width:1.07px;"/><path id="_1-10th--in.-Tick-no.-24" serif:id="1/10th &quot;in. Tick no. 24" d="M0,585.2l57.75,0" style="fill:none;fill-rule:nonzero;stroke:#000;stroke-width:1.07px;"/><path id="_1-10th--in.-Tick-no.-25" serif:id="1/10th &quot;in. Tick no. 25" d="M0,577.5l57.75,0" style="fill:none;fill-rule:nonzero;stroke:#000;stroke-width:1.07px;"/><path id="_1-10th--in.-Tick-no.-26" serif:id="1/10th &quot;in. Tick no. 26" d="M0,569.8l57.75,-0" style="fill:none;fill-rule:nonzero;stroke:#000;stroke-width:1.07px;"/><path id="_1-10th--in.-Tick-no.-27" serif:id="1/10th &quot;in. Tick no. 27" d="M0,562.1l57.75,0" style="fill:none;fill-rule:nonzero;stroke:#000;stroke-width:1.07px;"/><path id="_1-10th--in.-Tick-no.-28" serif:id="1/10th &quot;in. Tick no. 28" d="M0,554.4l57.75,0" style="fill:none;fill-rule:nonzero;stroke:#000;stroke-width:1.07px;"/><path id="_1-10th--in.-Tick-no.-29" serif:id="1/10th &quot;in. Tick no. 29" d="M0,546.7l57.75,0" style="fill:none;fill-rule:nonzero;stroke:#000;stroke-width:1.07px;"/><path id="_1-10th--in.-Tick-no.-31" serif:id="1/10th &quot;in. Tick no. 31" d="M0,531.3l57.75,0" style="fill:none;fill-rule:nonzero;stroke:#000;stroke-width:1.07px;"/><path id="_1-10th--in.-Tick-no.-32" serif:id="1/10th &quot;in. Tick no. 32" d="M0,523.6l57.75,0" style="fill:none;fill-rule:nonzero;stroke:#000;stroke-width:1.07px;"/><path id="_1-10th--in.-Tick-no.-33" serif:id="1/10th &quot;in. Tick no. 33" d="M0,515.9l57.75,0" style="fill:none;fill-rule:nonzero;stroke:#000;stroke-width:1.07px;"/><path id="_1-10th--in.-Tick-no.-34" serif:id="1/10th &quot;in. Tick no. 34" d="M0,508.2l57.75,0" style="fill:none;fill-rule:nonzero;stroke:#000;stroke-width:1.07px;"/><path id="_1-10th--in.-Tick-no.-35" serif:id="1/10th &quot;in. Tick no. 35" d="M0,500.5l57.75,0" style="fill:none;fill-rule:nonzero;stroke:#000;stroke-width:1.07px;"/><path id="_1-10th--in.-Tick-no.-36" serif:id="1/10th &quot;in. Tick no. 36" d="M0,492.8l57.75,0" style="fill:none;fill-rule:nonzero;stroke:#000;stroke-width:1.07px;"/><path id="_1-10th--in.-Tick-no.-37" serif:id="1/10th &quot;in. Tick no. 37" d="M0,485.1l57.75,0" style="fill:none;fill-rule:nonzero;stroke:#000;stroke-width:1.07px;"/><path id="_1-10th--in.-Tick-no.-38" serif:id="1/10th &quot;in. Tick no. 38" d="M0,477.4l57.75,-0" style="fill:none;fill-rule:nonzero;stroke:#000;stroke-width:1.07px;"/><path id="_1-10th--in.-Tick-no.-39" serif:id="1/10th &quot;in. Tick no. 39" d="M0,469.7l57.75,0" style="fill:none;fill-rule:nonzero;stroke:#000;stroke-width:1.07px;"/><path id="_1-10th--in.-Tick-no.-41" serif:id="1/10th &quot;in. Tick no. 41" d="M0,454.3l57.75,0" style="fill:none;fill-rule:nonzero;stroke:#000;stroke-width:1.07px;"/><path id="_1-10th--in.-Tick-no.-42" serif:id="1/10th &quot;in. Tick no. 42" d="M0,446.6l57.75,0" style="fill:none;fill-rule:nonzero;stroke:#000;stroke-width:1.07px;"/><path id="_1-10th--in.-Tick-no.-43" serif:id="1/10th &quot;in. Tick no. 43" d="M0,438.9l57.75,-0" style="fill:none;fill-rule:nonzero;stroke:#000;stroke-width:1.07px;"/><path id="_1-10th--in.-Tick-no.-44" serif:id="1/10th &quot;in. Tick no. 44" d="M0,431.2l57.75,0" style="fill:none;fill-rule:nonzero;stroke:#000;stroke-width:1.07px;"/><path id="_1-10th--in.-Tick-no.-45" serif:id="1/10th &quot;in. Tick no. 45" d="M0,423.5l57.75,0" style="fill:none;fill-rule:nonzero;stroke:#000;stroke-width:1.07px;"/><path id="_1-10th--in.-Tick-no.-46" serif:id="1/10th &quot;in. Tick no. 46" d="M0,415.8l57.75,0" style="fill:none;fill-rule:nonzero;stroke:#000;stroke-width:1.07px;"/><path id="_1-10th--in.-Tick-no.-47" serif:id="1/10th &quot;in. Tick no. 47" d="M0,408.1l57.75,0" style="fill:none;fill-rule:nonzero;stroke:#000;stroke-width:1.07px;"/><path id="_1-10th--in.-Tick-no.-48" serif:id="1/10th &quot;in. Tick no. 48" d="M0,400.4l57.75,-0" style="fill:none;fill-rule:nonzero;stroke:#000;stroke-width:1.07px;"/><path id="_1-10th--in.-Tick-no.-49" serif:id="1/10th &quot;in. Tick no. 49" d="M0,392.7l57.75,0" style="fill:none;fill-rule:nonzero;stroke:#000;stroke-width:1.07px;"/><path id="_1-10th--in.-Tick-no.-51" serif:id="1/10th &quot;in. Tick no. 51" d="M0,377.3l57.75,0" style="fill:none;fill-rule:nonzero;stroke:#000;stroke-width:1.07px;"/><path id="_1-10th--in.-Tick-no.-52" serif:id="1/10th &quot;in. Tick no. 52" d="M0,369.6l57.75,0" style="fill:none;fill-rule:nonzero;stroke:#000;stroke-width:1.07px;"/><path id="_1-10th--in.-Tick-no.-53" serif:id="1/10th &quot;in. Tick no. 53" d="M0,361.9l57.75,-0" style="fill:none;fill-rule:nonzero;stroke:#000;stroke-width:1.07px;"/><path id="_1-10th--in.-Tick-no.-54" serif:id="1/10th &quot;in. Tick no. 54" d="M0,354.2l57.75,0" style="fill:none;fill-rule:nonzero;stroke:#000;stroke-width:1.07px;"/><path id="_1-10th--in.-Tick-no.-55" serif:id="1/10th &quot;in. Tick no. 55" d="M0,346.5l57.75,0" style="fill:none;fill-rule:nonzero;stroke:#000;stroke-width:1.07px;"/><path id="_1-10th--in.-Tick-no.-56" serif:id="1/10th &quot;in. Tick no. 56" d="M0,338.8l57.75,0" style="fill:none;fill-rule:nonzero;stroke:#000;stroke-width:1.07px;"/><path id="_1-10th--in.-Tick-no.-57" serif:id="1/10th &quot;in. Tick no. 57" d="M0,331.1l57.75,0" style="fill:none;fill-rule:nonzero;stroke:#000;stroke-width:1.07px;"/><path id="_1-10th--in.-Tick-no.-58" serif:id="1/10th &quot;in. Tick no. 58" d="M0,323.4l57.75,-0" style="fill:none;fill-rule:nonzero;stroke:#000;stroke-width:1.07px;"/><path id="_1-10th--in.-Tick-no.-59" serif:id="1/10th &quot;in. Tick no. 59" d="M0,315.7l57.75,0" style="fill:none;fill-rule:nonzero;stroke:#000;stroke-width:1.07px;"/><path id="_1-10th--in.-Tick-no.-61" serif:id="1/10th &quot;in. Tick no. 61" d="M0,300.3l57.75,0" style="fill:none;fill-rule:nonzero;stroke:#000;stroke-width:1.07px;"/><path id="_1-10th--in.-Tick-no.-62" serif:id="1/10th &quot;in. Tick no. 62" d="M0,292.6l57.75,0" style="fill:none;fill-rule:nonzero;stroke:#000;stroke-width:1.07px;"/><path id="_1-10th--in.-Tick-no.-63" serif:id="1/10th &quot;in. Tick no. 63" d="M0,284.9l57.75,-0" style="fill:none;fill-rule:nonzero;stroke:#000;stroke-width:1.07px;"/><path id="_1-10th--in.-Tick-no.-64" serif:id="1/10th &quot;in. Tick no. 64" d="M0,277.2l57.75,0" style="fill:none;fill-rule:nonzero;stroke:#000;stroke-width:1.07px;"/><path id="_1-10th--in.-Tick-no.-65" serif:id="1/10th &quot;in. Tick no. 65" d="M0,269.5l57.75,0" style="fill:none;fill-rule:nonzero;stroke:#000;stroke-width:1.07px;"/><path id="_1-10th--in.-Tick-no.-66" serif:id="1/10th &quot;in. Tick no. 66" d="M0,261.8l57.75,0" style="fill:none;fill-rule:nonzero;stroke:#000;stroke-width:1.07px;"/><path id="_1-10th--in.-Tick-no.-67" serif:id="1/10th &quot;in. Tick no. 67" d="M0,254.1l57.75,0" style="fill:none;fill-rule:nonzero;stroke:#000;stroke-width:1.07px;"/><path id="_1-10th--in.-Tick-no.-68" serif:id="1/10th &quot;in. Tick no. 68" d="M0,246.4l57.75,-0" style="fill:none;fill-rule:nonzero;stroke:#000;stroke-width:1.07px;"/><path id="_1-10th--in.-Tick-no.-69" serif:id="1/10th &quot;in. Tick no. 69" d="M0,238.7l57.75,0" style="fill:none;fill-rule:nonzero;stroke:#000;stroke-width:1.07px;"/><path id="_1-10th--in.-Tick-no.-71" serif:id="1/10th &quot;in. Tick no. 71" d="M0,223.3l57.75,0" style="fill:none;fill-rule:nonzero;stroke:#000;stroke-width:1.07px;"/><path id="_1-10th--in.-Tick-no.-72" serif:id="1/10th &quot;in. Tick no. 72" d="M0,215.6l57.75,0" style="fill:none;fill-rule:nonzero;stroke:#000;stroke-width:1.07px;"/><path id="_1-10th--in.-Tick-no.-73" serif:id="1/10th &quot;in. Tick no. 73" d="M0,207.9l57.75,-0" style="fill:none;fill-rule:nonzero;stroke:#000;stroke-width:1.07px;"/><path id="_1-10th--in.-Tick-no.-74" serif:id="1/10th &quot;in. Tick no. 74" d="M0,200.2l57.75,0" style="fill:none;fill-rule:nonzero;stroke:#000;stroke-width:1.07px;"/><path id="_1-10th--in.-Tick-no.-75" serif:id="1/10th &quot;in. Tick no. 75" d="M0,192.5l57.75,0" style="fill:none;fill-rule:nonzero;stroke:#000;stroke-width:1.07px;"/><path id="_1-10th--in.-Tick-no.-76" serif:id="1/10th &quot;in. Tick no. 76" d="M0,184.8l57.75,-0" style="fill:none;fill-rule:nonzero;stroke:#000;stroke-width:1.07px;"/><path id="_1-10th--in.-Tick-no.-77" serif:id="1/10th &quot;in. Tick no. 77" d="M0,177.1l57.75,0" style="fill:none;fill-rule:nonzero;stroke:#000;stroke-width:1.07px;"/><path id="_1-10th--in.-Tick-no.-78" serif:id="1/10th &quot;in. Tick no. 78" d="M0,169.4l57.75,-0" style="fill:none;fill-rule:nonzero;stroke:#000;stroke-width:1.07px;"/><path id="_1-10th--in.-Tick-no.-79" serif:id="1/10th &quot;in. Tick no. 79" d="M0,161.7l57.75,0" style="fill:none;fill-rule:nonzero;stroke:#000;stroke-width:1.07px;"/><path id="_1-10th--in.-Tick-no.-81" serif:id="1/10th &quot;in. Tick no. 81" d="M0,146.3l57.75,-0" style="fill:none;fill-rule:nonzero;stroke:#000;stroke-width:1.07px;"/><path id="_1-10th--in.-Tick-no.-82" serif:id="1/10th &quot;in. Tick no. 82" d="M0,138.6l57.75,0" style="fill:none;fill-rule:nonzero;stroke:#000;stroke-width:1.07px;"/><path id="_1-10th--in.-Tick-no.-83" serif:id="1/10th &quot;in. Tick no. 83" d="M0,130.9l57.75,-0" style="fill:none;fill-rule:nonzero;stroke:#000;stroke-width:1.07px;"/><path id="_1-10th--in.-Tick-no.-84" serif:id="1/10th &quot;in. Tick no. 84" d="M0,123.2l57.75,0" style="fill:none;fill-rule:nonzero;stroke:#000;stroke-width:1.07px;"/><path id="_1-10th--in.-Tick-no.-85" serif:id="1/10th &quot;in. Tick no. 85" d="M0,115.5l57.75,0" style="fill:none;fill-rule:nonzero;stroke:#000;stroke-width:1.07px;"/><path id="_1-10th--in.-Tick-no.-86" serif:id="1/10th &quot;in. Tick no. 86" d="M0,107.8l57.75,-0" style="fill:none;fill-rule:nonzero;stroke:#000;stroke-width:1.07px;"/><path id="_1-10th--in.-Tick-no.-87" serif:id="1/10th &quot;in. Tick no. 87" d="M0,100.1l57.75,0" style="fill:none;fill-rule:nonzero;stroke:#000;stroke-width:1.07px;"/><path id="_1-10th--in.-Tick-no.-88" serif:id="1/10th &quot;in. Tick no. 88" d="M0,92.4l57.75,-0" style="fill:none;fill-rule:nonzero;stroke:#000;stroke-width:1.07px;"/><path id="_1-10th--in.-Tick-no.-89" serif:id="1/10th &quot;in. Tick no. 89" d="M0,84.7l57.75,0" style="fill:none;fill-rule:nonzero;stroke:#000;stroke-width:1.07px;"/><path id="_1-10th--in.-Tick-no.-91" serif:id="1/10th &quot;in. Tick no. 91" d="M0,69.3l57.75,-0" style="fill:none;fill-rule:nonzero;stroke:#000;stroke-width:1.07px;"/><path id="_1-10th--in.-Tick-no.-92" serif:id="1/10th &quot;in. Tick no. 92" d="M0,61.6l57.75,0" style="fill:none;fill-rule:nonzero;stroke:#000;stroke-width:1.07px;"/><path id="_1-10th--in.-Tick-no.-93" serif:id="1/10th &quot;in. Tick no. 93" d="M0,53.9l57.75,-0" style="fill:none;fill-rule:nonzero;stroke:#000;stroke-width:1.07px;"/><path id="_1-10th--in.-Tick-no.-94" serif:id="1/10th &quot;in. Tick no. 94" d="M0,46.2l57.75,0" style="fill:none;fill-rule:nonzero;stroke:#000;stroke-width:1.07px;"/><path id="_1-10th--in.-Tick-no.-95" serif:id="1/10th &quot;in. Tick no. 95" d="M0,38.5l57.75,0" style="fill:none;fill-rule:nonzero;stroke:#000;stroke-width:1.07px;"/><path id="_1-10th--in.-Tick-no.-96" serif:id="1/10th &quot;in. Tick no. 96" d="M0,30.8l57.75,-0" style="fill:none;fill-rule:nonzero;stroke:#000;stroke-width:1.07px;"/><path id="_1-10th--in.-Tick-no.-97" serif:id="1/10th &quot;in. Tick no. 97" d="M0,23.1l57.75,0" style="fill:none;fill-rule:nonzero;stroke:#000;stroke-width:1.07px;"/><path id="_1-10th--in.-Tick-no.-98" serif:id="1/10th &quot;in. Tick no. 98" d="M0,15.4l57.75,-0" style="fill:none;fill-rule:nonzero;stroke:#000;stroke-width:1.07px;"/><path id="_1-10th--in.-Tick-no.-99" serif:id="1/10th &quot;in. Tick no. 99" d="M0,7.7l57.75,0" style="fill:none;fill-rule:nonzero;stroke:#000;stroke-width:1.07px;"/></g></g></g><g id="myPaperExport.svg1" serif:id="myPaperExport.svg"></g></svg>